<svg width="50" height="57" viewBox="0 0 50 57" fill="none" xmlns="http://www.w3.org/2000/svg">
<path d="M37.663 37.9148L27.7778 35.1694H22.2222H16.6667L6.78148 37.9157C2.77315 39.0287 0 42.6778 0 46.837V56.4815H22.2222H44.4444V46.837C44.4444 42.6778 41.6713 39.0287 37.663 37.9148Z" fill="#80D6FB"/>
<path d="M7.40741 50.9259H9.25926V56.4815H7.40741V50.9259Z" fill="#46BEE8"/>
<path d="M27.7778 35.1694H22.2223H16.6667L14.8398 35.6768C15.0945 39.5315 18.3037 42.5926 22.2223 42.5926C26.1408 42.5926 29.35 39.5315 29.6047 35.6768L27.7778 35.1694Z" fill="#46BEE8"/>
<path d="M27.7778 28.688H16.6667V35.1694L16.6676 35.1704C16.6676 35.175 16.6667 35.1796 16.6667 35.1852C16.6667 38.2537 19.1537 40.7407 22.2222 40.7407C25.2908 40.7407 27.7778 38.2537 27.7778 35.1852C27.7778 35.1796 27.7769 35.175 27.7769 35.1694H27.7778V28.688Z" fill="#FCB98B"/>
<path d="M33.3333 12.0213V21.2963C33.3333 27.4324 28.3583 32.4074 22.2222 32.4074C16.0861 32.4074 11.1111 27.4324 11.1111 21.2963V12.0213H33.3333Z" fill="#FFD3B3"/>
<path d="M33.3333 14.8148H33.975C35.1018 14.8148 35.9676 15.813 35.8083 16.9296L35.4129 19.6917C35.2824 20.6037 34.5009 21.2806 33.5796 21.2806H33.3333V14.8148Z" fill="#FFD3B3"/>
<path d="M11.1111 14.8148H10.4695C9.3426 14.8148 8.47686 15.813 8.63612 16.9296L9.03149 19.6917C9.16205 20.6037 9.94353 21.2806 10.8648 21.2806H11.1111V14.8148Z" fill="#FFD3B3"/>
<path d="M33.3333 21.2805L31.4815 13.8731H22.2222H12.9629L11.1111 21.2805V10.1852C11.1111 5.07129 15.2565 0.925919 20.3703 0.925919H25C27.0453 0.925919 28.7037 2.58425 28.7037 4.62962C31.2602 4.62962 33.3333 6.70277 33.3333 9.25925V21.2805Z" fill="#6E83B7"/>
<path d="M41.6666 8.33333H39.8147V1.85185H33.3333V0H41.6666V8.33333Z" fill="#FFB0AA"/>
<path d="M4.62962 8.33333H2.77777V0H11.1111V1.85185H4.62962V8.33333Z" fill="#FFB0AA"/>
<path d="M41.6666 35.1852H33.3333V33.3333H39.8147V26.8519H41.6666V35.1852Z" fill="#FFB0AA"/>
<path d="M11.111 35.1852H2.77771V26.8519H4.62956V33.3333H11.111V35.1852Z" fill="#FFB0AA"/>
<path d="M2.77771 16.6667H41.6666V18.5185H2.77771V16.6667Z" fill="#FFB0AA"/>
<path d="M40.7408 56.4815C45.8545 56.4815 50 52.336 50 47.2222C50 42.1085 45.8545 37.963 40.7408 37.963C35.627 37.963 31.4815 42.1085 31.4815 47.2222C31.4815 52.336 35.627 56.4815 40.7408 56.4815Z" fill="#98CA69"/>
<path d="M40.7407 54.6296C44.8317 54.6296 48.1481 51.3132 48.1481 47.2222C48.1481 43.1312 44.8317 39.8148 40.7407 39.8148C36.6497 39.8148 33.3333 43.1312 33.3333 47.2222C33.3333 51.3132 36.6497 54.6296 40.7407 54.6296Z" fill="#EDEFF1"/>
<path d="M39.8148 50.8463L36.3824 47.4139L37.6916 46.1046L39.8148 48.2278L44.4842 43.5583L45.7935 44.8676L39.8148 50.8463Z" fill="#98CA69"/>
</svg>
