<svg width="50" height="30" viewBox="0 0 50 30" fill="none" xmlns="http://www.w3.org/2000/svg">
<path d="M31.0837 12.3133C28.454 10.5132 27.7414 7.63288 27.7414 7.63288L22.1228 10.5665C20.6583 11.3311 18.8826 11.1721 17.5773 10.1597C16.8768 9.61648 16.8886 8.55456 17.6009 8.02692L25.3629 2.2773C27.9942 0.328176 31.5673 0.245949 34.2855 2.07193L36.7778 3.74615C37.5624 4.2732 38.4861 4.55465 39.4312 4.55465H42.6301V19.8487H40.1884C39.0723 19.8487 37.9779 20.157 37.0258 20.7395L36.5369 21.0388H31.0704L31.0837 12.3133Z" fill="#FFC89F"/>
<path d="M27.7414 7.6329C27.7414 6.8329 26.8924 6.31835 26.1832 6.68866L22.1228 8.80868C20.6583 9.57333 18.8826 9.41435 17.5773 8.40195C17.507 8.34755 17.446 8.28671 17.3901 8.22284C16.8962 8.78583 16.9549 9.67705 17.5773 10.1598C18.8826 11.1723 20.6583 11.3311 22.1228 10.5665L27.7414 7.6329Z" fill="#F7BC94"/>
<path d="M37.0259 18.9819L36.5369 19.2811H31.0731L31.0705 21.0389H36.537L37.026 20.7397C37.978 20.1571 39.0725 19.8488 40.1886 19.8488H42.6303V18.091H40.1886C39.0723 18.0909 37.9778 18.3992 37.0259 18.9819Z" fill="#F7BC94"/>
<path d="M38.0652 17.0997L31.0842 12.313L31.0838 12.3133C31.0766 12.3084 31.0699 12.3031 31.0628 12.2982L31.0543 12.2924L31.054 12.292C28.4493 10.4905 27.7416 7.63288 27.7416 7.63288L22.1229 10.5665C20.6584 11.3311 18.8827 11.1721 17.5774 10.1597C16.8769 9.61648 16.8887 8.55456 17.601 8.02692L25 2.54615L24.6372 2.2773C22.0059 0.328176 18.4327 0.245949 15.7146 2.07193L13.2223 3.74615C12.4377 4.2732 11.514 4.55465 10.5689 4.55465H7.36993V19.8487H9.81164C10.9278 19.8487 12.0222 20.157 12.9742 20.7395L13.4632 21.0388L16.7709 21.4783L26.4173 27.2664L27.335 27.8956C28.1875 28.4801 29.3524 28.2629 29.9369 27.4105C30.5214 26.558 30.3043 25.3931 29.4517 24.8086L30.6497 25.63C31.5021 26.2145 32.6671 25.9973 33.2515 25.1448C33.836 24.2924 33.6188 23.1274 32.7664 22.543L33.7083 23.1889C34.5607 23.7733 35.7257 23.5562 36.3101 22.7037C36.8946 21.8513 36.6774 20.6865 35.8251 20.1019L35.9487 20.1867C36.8011 20.7712 37.9661 20.554 38.5506 19.7016C39.1349 18.8491 38.9176 17.6842 38.0652 17.0997Z" fill="#F4B184"/>
<path d="M38.0652 17.0997L31.0842 12.313L31.0838 12.3133C31.0766 12.3084 31.0699 12.3031 31.0628 12.2982L31.0543 12.2924L31.054 12.292C28.4493 10.4905 27.7416 7.63288 27.7416 7.63288L22.1229 10.5665C20.6584 11.3311 18.8827 11.1721 17.5774 10.1597C16.8769 9.61648 16.8887 8.55456 17.601 8.02692L25 2.54615L24.6372 2.2773C22.0059 0.328176 18.4327 0.245949 15.7146 2.07193L13.2223 3.74615C12.4377 4.2732 11.514 4.55465 10.5689 4.55465H7.36993V19.8487H9.81164C10.9278 19.8487 12.0222 20.157 12.9742 20.7395L13.4632 21.0388L16.7709 21.4783L26.4173 27.2664L27.335 27.8956C28.1875 28.4801 29.3524 28.2629 29.9369 27.4105C30.5214 26.558 30.3043 25.3931 29.4517 24.8086L30.6497 25.63C31.5021 26.2145 32.6671 25.9973 33.2515 25.1448C33.836 24.2924 33.6188 23.1274 32.7664 22.543L33.7083 23.1889C34.5607 23.7733 35.7257 23.5562 36.3101 22.7037C36.8946 21.8513 36.6774 20.6865 35.8251 20.1019L35.9487 20.1867C36.8011 20.7712 37.9661 20.554 38.5506 19.7016C39.1349 18.8491 38.9176 17.6842 38.0652 17.0997Z" fill="#F4B184"/>
<path d="M33.2513 25.1449C33.3955 24.9348 33.4903 24.7056 33.5394 24.4709C32.905 24.8488 32.0436 24.8282 31.3495 24.3523L24.6197 19.7378C23.9593 19.285 23.057 19.4532 22.6041 20.1136L30.6495 25.6301C31.502 26.2146 32.6668 25.9974 33.2513 25.1449Z" fill="#EAA678"/>
<path d="M28.2689 26.8017L26.4171 25.5087L16.7707 19.7206L13.463 19.281L12.974 18.9818C12.022 18.3992 10.9276 18.091 9.81144 18.091H7.36993V19.8488H9.81164C10.9278 19.8488 12.0222 20.1571 12.9742 20.7396L13.4632 21.0389L16.7709 21.4784L26.4173 27.2665L27.335 27.8957C28.1875 28.4802 29.3524 28.263 29.9369 27.4106C30.0416 27.2579 30.1194 27.095 30.1736 26.9275C29.5833 27.2259 28.8529 27.2021 28.2689 26.8017Z" fill="#EAA678"/>
<path d="M17.8829 19.8563L16.7708 21.4783C16.1863 22.3308 15.0214 22.5479 14.169 21.9635C13.3165 21.379 13.0993 20.2141 13.6838 19.3616L14.7959 17.7396C15.3804 16.8872 16.5453 16.67 17.3978 17.2545C18.2502 17.8391 18.4675 19.0039 17.8829 19.8563Z" fill="#FFC89F"/>
<path d="M17.3977 17.2545C17.1816 17.1063 16.9454 17.0102 16.7036 16.9623C17.1155 17.5797 17.1368 18.4099 16.6914 19.0594L15.5793 20.6814C15.143 21.3177 14.3833 21.5996 13.6716 21.4587C13.8003 21.6516 13.966 21.8243 14.1689 21.9635C15.0214 22.548 16.1863 22.3308 16.7708 21.4783L17.8829 19.8564C18.4675 19.0039 18.2502 17.8391 17.3977 17.2545Z" fill="#F7BC94"/>
<path d="M21.8715 20.6583L19.8578 23.595C19.2733 24.4475 18.1084 24.6647 17.2559 24.0802C16.4035 23.4957 16.1863 22.3308 16.7708 21.4783L18.7845 18.5416C19.3689 17.6892 20.5339 17.472 21.3863 18.0565C22.2388 18.641 22.4559 19.8059 21.8715 20.6583Z" fill="#FFC89F"/>
<path d="M21.3862 18.0565C21.1575 17.8996 20.9061 17.8023 20.6497 17.7577C21.0626 18.3752 21.0843 19.2063 20.6385 19.8564L18.6249 22.7931C18.1972 23.4168 17.4589 23.6987 16.7595 23.577C16.888 23.7693 17.0534 23.9414 17.2557 24.0802C18.1082 24.6648 19.2731 24.4475 19.8576 23.595L21.8713 20.6583C22.4559 19.8059 22.2387 18.641 21.3862 18.0565Z" fill="#F7BC94"/>
<path d="M24.3904 23.6034L22.9448 25.7118C22.3604 26.5643 21.1954 26.7815 20.343 26.197C19.4905 25.6125 19.2733 24.4476 19.8578 23.5951L21.3034 21.4868C21.8879 20.6344 23.0528 20.4172 23.9053 21.0017C24.7577 21.5861 24.9749 22.751 24.3904 23.6034Z" fill="#FFC89F"/>
<path d="M23.9053 21.0016C23.7089 20.8669 23.4955 20.7767 23.2769 20.7251C23.6437 21.3339 23.6474 22.1253 23.2192 22.7497L21.7736 24.8581C21.3237 25.5142 20.5305 25.792 19.8001 25.6197C19.934 25.842 20.115 26.0406 20.343 26.197C21.1954 26.7816 22.3604 26.5643 22.9448 25.7118L24.3905 23.6034C24.9749 22.751 24.7577 21.586 23.9053 21.0016Z" fill="#F7BC94"/>
<path d="M27.4755 25.723L26.0318 27.8284C25.4473 28.6809 24.2824 28.8981 23.4299 28.3136C22.5775 27.7291 22.3603 26.5642 22.9448 25.7117L24.3884 23.6062C24.9729 22.7538 26.1379 22.5366 26.9903 23.1211C27.8428 23.7056 28.06 24.8705 27.4755 25.723Z" fill="#FFC89F"/>
<path d="M26.9903 23.1211C26.7839 22.9795 26.5589 22.886 26.3285 22.8361C26.7072 23.4474 26.7149 24.2493 26.2822 24.8805L24.8384 26.986C24.3955 27.632 23.6194 27.9121 22.8985 27.7562C23.0312 27.9705 23.2087 28.1619 23.4299 28.3136C24.2824 28.8981 25.4473 28.6809 26.0318 27.8285L27.4755 25.723C28.06 24.8705 27.8427 23.7056 26.9903 23.1211Z" fill="#F7BC94"/>
<path d="M6.43214 22.3478H1.71904C1.20117 22.3478 0.78125 21.9279 0.78125 21.41V3.08016C0.78125 2.56229 1.20108 2.14236 1.71904 2.14236H6.43224C6.95011 2.14236 7.36994 2.56219 7.36994 3.08016V21.41C7.36994 21.9279 6.95011 22.3478 6.43214 22.3478Z" fill="#F9F6F6"/>
<path d="M48.2811 22.3478H43.5679C43.05 22.3478 42.6301 21.9279 42.6301 21.41V3.08016C42.6301 2.56229 43.0499 2.14236 43.5679 2.14236H48.2811C48.7989 2.14236 49.2188 2.56219 49.2188 3.08016V21.41C49.2188 21.9279 48.799 22.3478 48.2811 22.3478Z" fill="#F9F6F6"/>
<path d="M6.43214 20.59H1.71904C1.20117 20.59 0.78125 20.1701 0.78125 19.6522V21.41C0.78125 21.9278 1.20108 22.3478 1.71904 22.3478H6.43224C6.95011 22.3478 7.36994 21.9279 7.36994 21.41V19.6522C7.36994 20.1701 6.95011 20.59 6.43214 20.59Z" fill="#ECDAEC"/>
<path d="M48.2811 20.59H43.5679C43.05 20.59 42.6301 20.1701 42.6301 19.6522V21.41C42.6301 21.9278 43.0499 22.3478 43.5679 22.3478H48.2811C48.7989 22.3478 49.2188 21.9279 49.2188 21.41V19.6522C49.2188 20.1701 48.799 20.59 48.2811 20.59Z" fill="#ECDAEC"/>
<path d="M36.6519 18.9112L28.8489 13.5624C28.1895 13.1104 27.2884 13.2794 26.8376 13.9396L35.9485 20.1867C36.8009 20.7712 37.9659 20.554 38.5504 19.7016C38.6978 19.4865 38.7939 19.2516 38.8421 19.0111C38.2087 19.3995 37.345 19.3864 36.6519 18.9112Z" fill="#EAA678"/>
<path d="M36.3099 22.7037C36.4594 22.4857 36.5557 22.2472 36.6031 22.0033C35.9689 22.3969 35.1008 22.3861 34.4045 21.9086L26.7365 16.6508C26.0761 16.198 25.1738 16.3662 24.7209 17.0266L32.7662 22.543C32.7662 22.543 32.8972 22.6328 32.7662 22.543L33.7081 23.1889C34.5606 23.7735 35.7255 23.5562 36.3099 22.7037Z" fill="#EAA678"/>
<path d="M48.3267 1.38405H43.6043C42.6815 1.38405 41.9308 2.13473 41.9308 3.05749V3.80095H39.4596C38.6554 3.80095 37.8776 3.56394 37.2101 3.1156L34.713 1.43805C31.7637 -0.543103 27.8727 -0.469569 25.0002 1.6112C22.3862 -0.282068 18.8736 -0.526502 16.0243 0.995181C15.6667 1.1861 15.5317 1.63073 15.7226 1.98825C15.9135 2.34577 16.358 2.48073 16.7157 2.28991C18.9328 1.10583 21.6359 1.21471 23.7487 2.5362L17.1496 7.42439C16.6233 7.81433 16.3173 8.41356 16.31 9.06863C16.3028 9.72362 16.5954 10.3295 17.113 10.7309C18.643 11.9176 20.7406 12.1053 22.4569 11.2092L27.3309 8.66434C27.5899 9.30389 28.0411 10.217 28.7708 11.1302C29.2472 11.7266 29.8826 12.3675 30.7059 12.9265C30.7078 12.9278 37.6759 17.7099 37.6759 17.7099C38.1889 18.0463 38.3291 18.7978 37.9717 19.2966C37.6352 19.8098 36.8836 19.9498 36.3849 19.5925L27.2562 13.3332C26.922 13.104 26.4652 13.1892 26.236 13.5234C26.0068 13.8577 26.0919 14.3144 26.4262 14.5436L35.4307 20.7179C35.944 21.0543 36.0843 21.8059 35.7268 22.3048C35.3709 22.8238 34.6592 22.9566 34.1401 22.6006L25.1354 16.4263C24.8012 16.1971 24.3444 16.2823 24.1152 16.6165C23.886 16.9508 23.9711 17.4075 24.3054 17.6367L32.3663 23.1639C32.8795 23.5003 33.0196 24.2519 32.6623 24.7507C32.3258 25.2638 31.5743 25.4039 31.0756 25.0465C31.0756 25.0465 22.9529 19.4814 22.9209 19.4657C22.8771 18.6856 22.487 17.9331 21.7942 17.4581C20.808 16.7818 19.5175 16.8781 18.6427 17.6111C18.4476 17.2311 18.1602 16.903 17.7979 16.6547C16.6577 15.8378 14.9398 16.158 14.1707 17.3311L13.0564 18.9562C12.8771 19.2063 12.7527 19.4843 12.6799 19.7739C11.776 19.3483 10.7873 19.1254 9.78186 19.1254H8.06925V5.26863H10.5405C11.6372 5.26863 12.6981 4.94538 13.6083 4.33386L14.3183 3.85691C14.6547 3.63093 14.7443 3.17497 14.5182 2.83854C14.2922 2.50202 13.8363 2.41257 13.4998 2.63854L12.7899 3.1155C12.1224 3.56394 11.3447 3.80085 10.5405 3.80085H8.06925V3.05739C8.06925 2.13464 7.31857 1.38395 6.39581 1.38395H1.67344C0.750685 1.38405 0 2.13473 0 3.05749V12.3511C0 12.7563 0.328614 13.085 0.733888 13.085C1.13916 13.085 1.46778 12.7563 1.46778 12.3511V3.05749C1.46778 2.94411 1.56006 2.85173 1.67354 2.85173H6.39591C6.50929 2.85173 6.60167 2.94401 6.60167 3.05749V21.4232C6.60167 21.5365 6.50939 21.6289 6.39591 21.6289H1.67344C1.56006 21.6289 1.46768 21.5366 1.46768 21.4232V15.2864C1.46768 14.8811 1.13906 14.5525 0.733791 14.5525C0.328516 14.5525 0 14.8811 0 15.2864V21.4232C0 22.3459 0.750685 23.0966 1.67344 23.0966H6.39581C7.31857 23.0966 8.06925 22.3459 8.06925 21.4232V20.5927H9.78186C10.7654 20.5927 11.7286 20.8641 12.5676 21.3773L12.8548 21.5531C13.0458 21.9641 13.3415 22.3265 13.7327 22.5829C14.3371 22.9942 15.0408 23.1247 15.7291 22.9853C15.8452 23.6873 16.2394 24.3016 16.8258 24.7037C17.4303 25.1151 18.1338 25.2455 18.8222 25.1061C18.9382 25.8081 19.3324 26.4225 19.9189 26.8246C20.5238 27.2362 21.2278 27.3666 21.9164 27.2267C22.03 27.9005 22.4052 28.5294 23.0119 28.9454C24.1704 29.7435 25.7814 29.4699 26.6091 28.3105L26.9244 28.5267C28.0698 29.3447 29.7809 29.0226 30.5515 27.8503C30.8083 27.4759 30.9592 27.0509 30.9985 26.6109C32.0563 26.9153 33.2215 26.5274 33.8726 25.5803C34.1572 25.1652 34.3047 24.6961 34.3259 24.2269C35.3169 24.4135 36.3751 23.9729 36.9373 23.1343C37.2878 22.6231 37.4421 22.0177 37.3821 21.408C38.2323 20.8758 39.215 20.5921 40.2181 20.5925H41.9307V21.423C41.9307 22.3457 42.6814 23.0964 43.6042 23.0964H48.3266C49.2493 23.0964 50 22.3457 50 21.423V3.05749C50.0001 2.13473 49.2494 1.38405 48.3267 1.38405ZM16.1494 21.0766C15.7936 21.5956 15.0818 21.7284 14.5627 21.3725C14.0437 21.0166 13.911 20.3048 14.2668 19.7857L15.3812 18.1606C15.7183 17.6479 16.4668 17.5069 16.9679 17.8648C17.4869 18.2207 17.6197 18.9325 17.2637 19.4515L16.1494 21.0766ZM19.2425 23.1975C18.8867 23.7165 18.1748 23.8492 17.6558 23.4933C17.1427 23.1567 17.0026 22.4054 17.36 21.9066L19.3776 18.9641C19.7147 18.4513 20.4632 18.3104 20.9643 18.6682C21.4833 19.024 21.6161 19.7358 21.2601 20.2549L19.2425 23.1975ZM22.3356 25.3183C21.9797 25.8373 21.268 25.9701 20.7489 25.6142C20.2358 25.2777 20.0957 24.5262 20.4531 24.0275L21.9015 21.9149C22.221 21.4289 22.9098 21.2777 23.4076 21.5679L23.568 21.6779C24.0146 22.0369 24.122 22.7341 23.7841 23.2058L22.3356 25.3183ZM23.8418 27.735C23.3228 27.3791 23.1901 26.6673 23.546 26.1483L24.9926 24.0387C25.3297 23.5259 26.0781 23.385 26.5792 23.7427L26.5794 23.7429C27.0925 24.0794 27.2325 24.8307 26.8752 25.3295L25.4286 27.4392C25.0727 27.9581 24.361 28.0909 23.8418 27.735ZM29.3411 27.0204C29.0046 27.5335 28.2532 27.6737 27.7544 27.3162L27.4402 27.1008L28.0856 26.1595C28.313 25.8278 28.4575 25.4565 28.5149 25.0701L29.0452 25.4337C29.5585 25.7702 29.6985 26.5216 29.3411 27.0204ZM48.5324 21.4232C48.5324 21.5365 48.4401 21.6289 48.3267 21.6289H43.6043C43.4909 21.6289 43.3985 21.5366 43.3985 21.4232V10.9521C43.3985 10.5469 43.0699 10.2182 42.6646 10.2182C42.2594 10.2182 41.9307 10.5468 41.9307 10.9521V19.1249H40.2181C40.0082 19.1249 39.799 19.1349 39.5911 19.1541C39.7961 18.156 39.3573 17.0674 38.5056 16.4991L35.5133 14.4473C35.6705 14.4539 35.8295 14.4584 35.9924 14.4584C36.3976 14.4584 36.7262 14.1298 36.7262 13.7245C36.7262 13.3192 36.3976 12.9906 35.9924 12.9906C34.2936 12.9906 32.8228 12.5764 31.5941 11.7599L31.5733 11.7457C31.5711 11.7441 31.5685 11.7433 31.5663 11.742C30.9704 11.3419 30.431 10.8478 29.9523 10.2572C28.8301 8.87274 28.4622 7.45496 28.459 7.44275C28.4049 7.2242 28.2536 7.04256 28.0483 6.94998C27.843 6.8575 27.6066 6.86433 27.407 6.96844L21.7773 9.9078C20.5681 10.539 19.0902 10.407 18.0123 9.57088C17.8609 9.4534 17.7752 9.27615 17.7774 9.08455C17.7794 8.89295 17.8691 8.71756 18.0231 8.6035L25.8003 2.84265C28.1817 1.07868 31.4345 1.00377 33.8944 2.65632L36.3916 4.33386C37.3018 4.94538 38.3627 5.26863 39.4594 5.26863H41.9306V8.01668C41.9306 8.42195 42.2593 8.75057 42.6645 8.75057C43.0698 8.75057 43.3984 8.42205 43.3984 8.01668V3.05739C43.3984 2.94401 43.4907 2.85163 43.6042 2.85163H48.3266C48.4399 2.85163 48.5323 2.94391 48.5323 3.05739V21.4232H48.5324Z" fill="black"/>
<path d="M4.76844 19.2415V18.0332C4.76844 17.6279 4.43992 17.2993 4.03455 17.2993C3.62918 17.2993 3.30066 17.6278 3.30066 18.0332V19.2415C3.30066 19.6468 3.62918 19.9754 4.03455 19.9754C4.43992 19.9754 4.76844 19.6468 4.76844 19.2415Z" fill="black"/>
<path d="M45.9654 17.2993C45.5601 17.2993 45.2315 17.6278 45.2315 18.0332V19.2415C45.2315 19.6468 45.5601 19.9754 45.9654 19.9754C46.3707 19.9754 46.6993 19.6468 46.6993 19.2415V18.0332C46.6993 17.6278 46.3708 17.2993 45.9654 17.2993Z" fill="black"/>
</svg>
