<svg width="50" height="59" viewBox="0 0 50 59" fill="none" xmlns="http://www.w3.org/2000/svg">
<path d="M38.2067 23.677L23.0038 38.8795C21.9198 39.9639 20.1609 39.9639 19.0766 38.8795L11.7942 31.5975C10.7099 30.5131 10.7099 28.7544 11.7942 27.6698C12.8787 26.5858 14.638 26.5858 15.7216 27.6698L21.0404 32.9883L34.2792 19.7495C35.3634 18.6653 37.1223 18.6653 38.2067 19.7495C39.2907 20.8335 39.2907 22.5925 38.2067 23.677ZM24.9997 1.23309C17.5132 5.65369 9.68227 8.99902 1.2334 11.3138V23.9148C1.2334 47.5564 21.68 57.3964 24.9997 57.3964C28.3198 57.3964 48.7669 47.5564 48.7669 23.9148V11.3138C40.7982 9.13025 32.4616 5.6388 24.9997 1.23309Z" fill="#85BF4F"/>
<path d="M23.0038 38.8795L38.2067 23.677C39.2906 22.5925 39.2906 20.8334 38.2067 19.7495C37.1223 18.6653 35.3634 18.6653 34.2792 19.7495L21.0404 32.9883L15.7216 27.6697C14.6378 26.5858 12.8787 26.5858 11.7942 27.6697C10.7099 28.7544 10.7099 30.5131 11.7942 31.5975L19.0765 38.8795C20.1607 39.9639 21.9196 39.9639 23.0038 38.8795Z" fill="#FFCD85"/>
<path d="M49.0926 10.1241C41.0259 7.91379 32.9117 4.47215 25.6273 0.171338C25.2404 -0.0571125 24.7602 -0.0571125 24.3734 0.171338C16.8789 4.59571 9.20316 7.85116 0.907388 10.1241C0.371475 10.2708 0 10.7579 0 11.3136V23.9151C0 36.8919 5.98654 45.4816 11.0088 50.4023C16.4155 55.7002 22.7137 58.6299 25.0003 58.6299C27.2868 58.6299 33.5849 55.7002 38.9917 50.4023C44.0138 45.4818 50 36.8919 50 23.9151V11.3135C50 10.7579 49.6285 10.2708 49.0926 10.1241ZM47.5334 23.915C47.5334 36.0353 41.9497 44.0505 37.2653 48.6403C31.9484 53.85 26.2637 56.1631 25.0003 56.1631C23.7369 56.1631 18.0519 53.85 12.7349 48.6403C8.0506 44.0504 2.46669 36.0353 2.46669 23.915V12.2498C10.3998 9.99733 17.7878 6.85388 25.0006 2.66242C32.0332 6.74268 39.7898 10.0424 47.5334 12.2493V23.915Z" fill="#000003"/>
<path d="M14.0685 12.1118C13.8189 11.478 13.1028 11.1666 12.4689 11.4163C10.2657 12.2845 8.00431 13.0835 5.74764 13.7914C5.23337 13.9529 4.88342 14.4293 4.88342 14.9681V19.7308C4.88342 20.4119 5.43571 20.9641 6.11671 20.9641C6.79771 20.9641 7.35 20.4119 7.35 19.7308V15.8695C9.37444 15.2145 11.3967 14.4899 13.3731 13.7112C14.0069 13.4616 14.3182 12.7456 14.0685 12.1118Z" fill="#000003"/>
<path d="M16.4113 12.3457C16.5768 12.3457 16.7448 12.3124 16.9059 12.2421L16.9286 12.2322C17.5526 11.9588 17.8336 11.2324 17.5601 10.6087C17.2864 9.98473 16.556 9.70246 15.9327 9.97568L15.9128 9.98427C15.2884 10.2569 15.0065 10.9827 15.2792 11.6068C15.4815 12.0701 15.9355 12.3457 16.4113 12.3457Z" fill="#000003"/>
<path d="M39.6943 39.7679C39.1244 39.3954 38.3602 39.5556 37.9872 40.1257C36.9709 41.6812 35.7786 43.1708 34.443 44.5526C33.3446 45.6888 32.1543 46.7478 30.9054 47.7C30.3638 48.1129 30.2596 48.8868 30.6725 49.4285C30.9153 49.7467 31.2826 49.9142 31.654 49.9142C31.9149 49.9142 32.1777 49.8318 32.401 49.6614C33.7482 48.6341 35.0319 47.4921 36.2162 46.2671C37.6603 44.7734 38.9508 43.1611 40.0522 41.4749C40.4249 40.9046 40.2645 40.1404 39.6943 39.7679Z" fill="#000003"/>
<path d="M28.0412 49.6342L27.9704 49.6758C27.381 50.0172 27.1796 50.7716 27.5208 51.361C27.7495 51.7561 28.1635 51.9766 28.5893 51.9766C28.7989 51.9766 29.0117 51.9231 29.206 51.8103L29.2876 51.7624C29.8754 51.4181 30.0728 50.6627 29.7286 50.0749C29.3842 49.4874 28.6286 49.2903 28.0412 49.6342Z" fill="#000003"/>
<path d="M16.5936 26.7979C15.8363 26.0405 14.8292 25.6237 13.7581 25.6237C12.6869 25.6237 11.6797 26.0406 10.9221 26.7979C9.35866 28.3616 9.35866 30.9061 10.9221 32.4697L18.2045 39.752C18.9619 40.5091 19.969 40.926 21.0403 40.926C22.1116 40.926 23.1187 40.5091 23.8762 39.7517L39.0788 24.549C40.6421 22.9849 40.6421 20.4408 39.0786 18.8776C38.3212 18.1202 37.3141 17.7034 36.2427 17.7034C35.1715 17.7034 34.1643 18.1203 33.4068 18.8776L21.0402 31.2442L16.5936 26.7979ZM35.1511 20.6218C35.4425 20.3304 35.8304 20.1699 36.2428 20.1699C36.6555 20.1699 37.043 20.3304 37.3347 20.6218C37.9364 21.2236 37.9364 22.2031 37.3345 22.8051L22.1321 38.0076C21.8406 38.299 21.4528 38.4595 21.0403 38.4595C20.6278 38.4595 20.24 38.299 19.9484 38.0076L12.6662 30.7256C12.0642 30.1236 12.0642 29.1441 12.666 28.5423C12.9575 28.2509 13.3454 28.0902 13.758 28.0902C14.1705 28.0902 14.5582 28.2507 14.8496 28.5421L20.1681 33.8607C20.3994 34.0919 20.713 34.2217 21.0401 34.2217C21.3671 34.2217 21.6808 34.0919 21.912 33.8607L35.1511 20.6218Z" fill="#000003"/>
</svg>
